<?xml version="1.0" standalone="no"?>
<!DOCTYPE svg PUBLIC "-//W3C//DTD SVG 20010904//EN"
 "http://www.w3.org/TR/2001/REC-SVG-20010904/DTD/svg10.dtd">
<svg version="1.0" xmlns="http://www.w3.org/2000/svg"
 width="1312.000000pt" height="2048.000000pt" viewBox="0 0 1312.000000 2048.000000"
 preserveAspectRatio="xMidYMid meet"><g transform="translate(0.000000,2048.000000) scale(0.100000,-0.100000)"
fill="#000000" stroke="none">
<path d="M5639 19975 c-147 -25 -285 -77 -386 -146 -26 -18 -163 -149 -304
-290 -168 -170 -268 -262 -293 -273 -42 -17 -302 -268 -401 -386 l-63 -75
-133 -60 c-168 -74 -573 -275 -699 -345 -234 -131 -420 -283 -533 -434 -108
-146 -177 -315 -322 -791 -183 -601 -637 -2256 -945 -3445 -45 -173 -115 -443
-157 -600 -41 -157 -146 -568 -234 -915 -193 -760 -194 -765 -218 -765 -10 0
-50 -16 -89 -35 -85 -43 -152 -113 -181 -189 -23 -62 -219 -834 -233 -917 -11
-71 10 -182 48 -247 35 -59 98 -120 160 -154 45 -24 544 -177 1446 -443 418
-123 452 -130 542 -115 131 21 244 105 300 224 47 99 247 842 254 942 5 83
-15 165 -59 237 -16 26 -29 54 -29 63 0 9 108 446 241 972 132 526 290 1152
350 1391 60 239 111 436 114 439 5 5 1 25 85 -378 38 -185 81 -380 96 -435 23
-88 53 -215 71 -297 l5 -28 -29 0 c-17 0 -42 -9 -55 -20 -48 -37 -55 -77 -53
-290 1 -125 6 -203 13 -217 7 -12 26 -33 44 -47 l32 -25 -13 -68 c-8 -37 -27
-108 -43 -158 -49 -150 -154 -520 -207 -731 -141 -561 -265 -1184 -360 -1804
-79 -512 -237 -1599 -301 -2070 -61 -451 -136 -994 -230 -1655 -38 -269 -83
-600 -100 -735 -17 -135 -76 -585 -131 -1000 -55 -415 -122 -928 -150 -1140
-27 -212 -68 -518 -91 -680 -46 -334 -45 -376 10 -494 46 -98 120 -165 255
-230 315 -153 976 -324 1659 -430 457 -71 1135 -149 1538 -176 251 -17 996
-23 1305 -11 290 11 347 19 457 63 56 23 90 28 318 42 402 26 744 65 1114 127
589 98 1149 253 1420 392 165 84 253 192 279 341 9 53 8 89 -6 193 -9 70 -62
477 -117 903 -56 426 -123 942 -150 1145 -27 204 -63 474 -79 600 -48 368
-137 1028 -196 1445 -30 212 -84 601 -120 865 -305 2229 -451 3144 -621 3890
-86 376 -213 864 -280 1076 -13 43 -35 128 -47 190 l-24 113 39 36 38 37 0
212 c0 230 -4 249 -56 290 -15 12 -37 21 -50 21 -13 0 -24 3 -24 8 0 10 25
125 80 358 26 110 74 330 105 487 32 158 62 284 66 280 8 -8 649 -2551 689
-2730 l18 -81 -29 -44 c-43 -65 -61 -129 -61 -221 l-1 -82 117 -424 c124 -452
147 -512 219 -577 22 -20 69 -50 106 -68 l66 -31 105 0 105 0 355 104 c813
238 1388 413 1446 440 145 68 234 206 234 363 0 38 -17 124 -49 246 -27 103
-79 306 -116 452 -76 304 -95 347 -186 415 -31 23 -84 52 -118 65 -54 20 -62
26 -71 59 -6 20 -40 153 -76 296 -36 143 -94 370 -129 505 -35 135 -105 405
-155 600 -329 1280 -518 1992 -775 2920 -277 1002 -449 1584 -541 1835 -114
310 -300 513 -664 725 -152 89 -615 322 -794 400 -69 31 -85 43 -141 110 -98
117 -359 369 -401 386 -23 10 -134 111 -303 278 -175 173 -286 275 -326 298
-76 46 -190 91 -286 114 l-74 18 -880 2 c-684 2 -897 -1 -956 -11z m40 -286
c-61 -61 -129 -200 -164 -334 -27 -108 -47 -412 -27 -441 5 -8 56 -1 170 22
334 67 599 89 997 81 354 -7 637 -38 889 -97 48 -11 89 -20 91 -20 12 0 4 305
-10 381 -26 153 -89 304 -162 389 l-35 40 34 0 c51 0 162 -26 204 -48 89 -46
138 -131 176 -304 19 -89 22 -132 22 -323 0 -243 -16 -386 -79 -719 -117 -616
-398 -1521 -712 -2290 -108 -267 -241 -582 -316 -750 l-70 -159 11 -41 c14
-54 285 -706 293 -706 3 0 64 70 135 156 320 386 619 822 852 1237 409 733
660 1466 747 2181 9 71 14 134 12 140 -3 6 -2 48 2 93 l6 82 105 -53 105 -53
6 -38 c7 -45 -12 -236 -42 -415 -130 -778 -431 -1548 -917 -2340 -205 -334
-542 -797 -820 -1124 l-101 -118 45 -126 c159 -448 312 -1049 365 -1430 l13
-94 36 6 c19 3 59 9 88 12 l53 7 125 145 124 145 0 118 0 117 23 6 c12 3 82 6
155 6 l132 0 0 160 0 159 153 3 152 3 3 157 3 157 35 10 c20 6 45 18 56 28
l19 17 22 -26 c12 -15 67 -79 122 -143 55 -64 108 -130 118 -146 l19 -29 -150
0 -150 0 5 -44 c3 -24 0 -97 -6 -162 l-12 -119 -36 -53 c-20 -29 -39 -55 -44
-58 -4 -2 -5 27 -2 66 l6 70 -122 0 -121 0 0 -33 c0 -55 -21 -149 -41 -187
-10 -19 -70 -96 -133 -170 -63 -74 -112 -137 -110 -139 1 -2 119 14 261 34
l258 38 20 25 c11 14 53 70 93 126 81 113 275 366 278 363 1 -1 -11 -51 -28
-112 -17 -60 -52 -218 -80 -350 -27 -132 -50 -240 -51 -241 -1 -1 -146 -22
-322 -48 -350 -52 -1137 -174 -1171 -182 -17 -4 -23 -15 -27 -52 -3 -26 -18
-87 -33 -137 -14 -49 -46 -160 -69 -246 -23 -86 -56 -186 -72 -222 -53 -111
-128 -176 -241 -206 -32 -9 -42 -17 -42 -32 0 -11 9 -77 20 -147 29 -189 77
-571 100 -792 57 -555 144 -1693 166 -2175 l7 -150 28 -27 c51 -52 79 -44 351
100 261 137 309 172 328 243 13 48 12 60 -61 569 -145 1013 -324 1873 -510
2448 -38 118 -69 222 -69 231 0 33 22 81 42 92 11 6 126 17 256 25 436 25 924
67 1252 108 63 8 118 11 121 8 7 -9 25 -90 44 -198 8 -44 25 -109 39 -145 14
-36 43 -131 66 -210 22 -79 43 -150 45 -157 10 -29 -22 9 -201 233 -156 197
-190 234 -208 230 -11 -3 -142 -16 -291 -30 -148 -14 -296 -29 -328 -33 l-58
-7 119 -132 119 -131 6 -358 c4 -197 4 -360 1 -363 -3 -3 -54 -8 -114 -9
l-108 -4 -3 75 -4 74 -63 81 c-34 44 -62 83 -62 86 0 3 68 6 150 6 83 0 150 4
150 8 0 5 -68 85 -151 178 -84 93 -178 199 -210 237 l-59 68 0 72 c0 39 -4 78
-8 85 -6 9 -39 11 -140 6 -73 -4 -132 -9 -132 -12 0 -2 22 -77 49 -166 150
-491 262 -985 371 -1636 28 -168 52 -309 53 -313 1 -5 55 56 120 135 64 79
134 163 156 188 l40 45 197 -205 c109 -113 249 -257 311 -320 l113 -115 0 153
0 152 125 0 125 0 0 135 0 135 135 0 135 0 5 -22 c3 -13 14 -86 26 -162 l20
-139 -38 -41 c-203 -215 -453 -494 -453 -505 0 -3 33 -42 73 -85 l73 -79 190
221 c104 121 192 221 195 221 3 1 12 -41 18 -91 7 -51 14 -100 17 -110 3 -10
-35 -61 -108 -145 -62 -71 -157 -182 -212 -246 -84 -100 -101 -116 -114 -105
-8 7 -169 177 -358 378 -188 201 -369 392 -403 425 -53 51 -63 57 -75 45 -56
-61 -246 -283 -246 -289 0 -18 69 -504 72 -507 2 -2 50 53 107 122 l104 126
104 -103 c57 -57 118 -121 135 -141 l30 -38 -19 -24 c-10 -14 -146 -183 -303
-376 l-285 -351 -5 226 -5 227 -37 -30 c-21 -16 -74 -48 -118 -71 l-80 -42 -2
-3497 -3 -3497 -19 -39 c-11 -22 -35 -54 -53 -72 -57 -58 -105 -75 -232 -87
-172 -15 -1267 -15 -1486 1 -1281 92 -2418 294 -3000 533 -192 79 -236 119
-242 216 -5 72 16 159 37 156 8 -1 87 -31 175 -67 654 -266 1798 -472 3100
-558 215 -14 1138 -17 1310 -4 l109 8 33 33 33 33 0 3356 0 3355 -73 -35 c-41
-19 -101 -39 -134 -44 -151 -25 -281 49 -333 188 -21 57 -25 94 -60 665 l-20
329 -107 114 c-59 62 -109 111 -112 109 -6 -7 -38 -648 -46 -925 -3 -118 -8
-233 -11 -254 -4 -31 -2 -37 8 -28 10 8 84 -69 323 -335 171 -190 313 -353
317 -362 4 -9 7 -137 7 -286 l0 -270 -37 40 c-20 23 -127 140 -236 260 -110
121 -235 258 -279 304 l-81 85 -45 -51 c-63 -69 -1024 -1098 -1075 -1151 l-42
-42 -129 162 c-71 90 -255 323 -409 518 -390 496 -449 569 -462 570 -6 0 -178
-174 -382 -388 -409 -427 -729 -749 -737 -740 -4 3 6 95 20 204 15 110 32 239
38 289 l12 89 325 335 c179 185 421 435 539 556 117 121 216 221 220 222 3 1
226 -275 495 -613 269 -337 492 -614 496 -614 6 0 373 392 493 526 l36 40
-198 83 c-108 45 -204 86 -212 91 -10 7 -28 -5 -66 -42 -46 -46 -54 -50 -65
-36 -7 8 -192 239 -411 512 l-398 497 79 87 c44 48 105 111 135 140 l54 54
110 -134 c60 -73 167 -204 237 -291 71 -87 131 -155 134 -153 4 5 50 467 52
518 0 29 -484 618 -508 618 -11 0 -141 -135 -469 -485 -149 -159 -292 -310
-317 -335 l-46 -44 -24 24 c-12 14 -107 123 -210 242 l-187 218 16 107 c9 59
17 109 19 110 2 2 252 -284 357 -410 32 -37 29 -38 120 64 l61 69 -27 32 c-15
18 -123 138 -239 266 -116 128 -214 241 -219 250 -4 9 3 85 15 167 l23 150
138 3 137 3 0 -136 0 -135 125 0 124 0 3 -147 3 -147 160 164 c88 91 225 232
305 313 l145 148 39 -43 c21 -24 142 -168 268 -320 126 -153 233 -278 237
-278 5 0 11 35 15 78 6 68 107 835 123 935 l6 37 -97 0 -96 0 0 160 0 159 122
3 122 3 14 70 c88 465 117 591 182 805 23 73 38 135 35 139 -4 3 -75 8 -159
10 l-153 3 -94 -104 c-130 -144 -463 -528 -467 -539 -2 -5 67 -9 152 -9 l157
0 -70 -86 c-70 -87 -81 -114 -81 -196 l0 -38 -109 0 c-61 0 -112 3 -114 8 -3
4 0 169 5 367 l10 360 119 131 118 132 -62 7 c-493 49 -643 61 -647 56 -40
-56 -374 -471 -376 -468 -5 5 100 372 120 419 9 21 20 66 25 100 11 70 38 198
43 203 2 2 98 -7 213 -20 462 -53 844 -83 1338 -103 l169 -7 -7 30 c-23 108
-23 254 0 391 l7 42 -28 6 c-88 17 -880 140 -1339 207 -159 23 -291 43 -292
43 -1 1 -23 105 -48 231 -26 127 -49 233 -52 237 -12 20 -59 238 -49 226 32
-35 162 -207 251 -330 54 -76 106 -145 116 -154 12 -11 94 -28 270 -55 139
-21 255 -36 257 -34 3 3 -50 73 -118 157 -131 161 -154 204 -166 306 l-7 62
-98 0 -99 0 0 -34 c0 -18 5 -57 10 -86 6 -29 9 -55 7 -56 -6 -7 -117 135 -128
163 -6 15 -14 92 -17 171 l-5 142 -148 0 c-82 0 -149 3 -149 6 0 5 215 259
261 308 l17 19 44 -22 c24 -11 52 -21 61 -21 15 0 17 -19 19 -157 l3 -158 148
-3 147 -3 0 -159 0 -160 154 0 153 0 6 -82 c4 -46 7 -102 7 -125 l0 -42 121
-140 121 -139 66 -12 c37 -6 186 -30 332 -54 l265 -43 54 48 c114 102 263 156
403 145 53 -4 92 -1 125 9 26 8 84 15 128 15 140 0 244 -40 334 -127 44 -42
62 -53 88 -53 18 0 33 5 33 11 0 6 -12 45 -26 87 -52 156 -181 377 -358 612
-103 138 -248 310 -531 631 -324 367 -468 535 -591 689 -713 887 -1212 1832
-1449 2743 -84 323 -161 773 -153 893 l3 47 105 53 105 53 12 -152 c36 -446
133 -876 309 -1360 90 -247 184 -461 328 -742 140 -274 268 -493 437 -747 268
-402 507 -703 1005 -1263 281 -316 427 -491 567 -677 61 -81 113 -146 115
-143 6 5 -98 365 -165 570 -116 355 -279 766 -604 1523 -496 1154 -728 1800
-928 2582 -131 514 -191 892 -191 1210 0 157 13 275 40 378 37 135 76 190 169
237 40 20 141 43 194 44 l37 1 -21 -21z m-792 -717 l-44 -141 28 -33 c16 -18
28 -38 29 -43 0 -6 -58 -30 -130 -53 -71 -24 -130 -47 -130 -53 0 -5 30 -65
66 -134 47 -90 62 -126 52 -129 -7 -3 -46 -16 -87 -29 l-74 -24 6 151 c5 126
12 173 41 288 19 75 39 145 44 155 25 44 233 215 240 195 1 -5 -17 -72 -41
-150z m3372 116 c88 -65 161 -130 172 -151 6 -10 26 -80 45 -155 29 -114 36
-162 41 -288 l6 -151 -81 26 -81 26 6 25 c3 14 30 71 59 127 30 56 54 107 54
112 0 9 -23 18 -175 62 -44 12 -82 24 -84 26 -2 2 11 21 29 44 l33 41 -43 137
c-24 75 -45 142 -48 149 -7 21 9 14 67 -30z m1146 -801 c97 -52 274 -153 301
-171 1 -1 5 -36 9 -78 l7 -78 -111 0 -111 0 0 -32 c0 -18 -3 -57 -6 -85 l-7
-53 -122 0 -123 0 -7 -87 c-3 -49 -7 -95 -8 -103 -1 -9 -19 -17 -46 -22 -25
-4 -47 -6 -49 -3 -2 2 3 46 12 97 29 174 46 352 46 498 0 80 3 161 6 182 l6
36 37 -15 c19 -8 94 -47 166 -86z m-5476 -78 c1 -136 23 -369 50 -521 10 -59
17 -109 15 -110 -1 -2 -23 -2 -47 0 l-45 4 -6 36 c-3 21 -6 67 -6 105 l0 67
-124 0 -123 0 -7 38 c-3 20 -6 58 -6 85 l0 47 -110 0 -111 0 3 77 3 77 90 54
c50 29 162 89 250 133 l160 80 6 -28 c4 -15 7 -80 8 -144z m1236 -154 l18 -90
-37 -75 c-21 -41 -110 -214 -199 -383 l-162 -308 -17 58 c-10 32 -23 81 -29
110 l-12 52 133 248 c224 419 273 505 280 491 4 -7 15 -53 25 -103z m2905 -28
c40 -72 131 -241 201 -375 l128 -243 -26 -100 c-21 -79 -29 -97 -39 -87 -11
12 -275 510 -357 675 l-36 71 21 96 c12 53 25 96 28 96 3 0 39 -60 80 -133z
m-3381 -84 l61 -83 -23 -4 c-12 -3 -36 -7 -53 -10 l-32 -5 -6 57 c-4 31 -9 75
-12 97 -4 22 -4 38 -1 35 3 -3 32 -42 66 -87z m3809 -10 l-11 -92 -31 5 c-17
3 -41 7 -53 10 l-22 4 61 86 c33 46 62 83 64 81 2 -2 -2 -44 -8 -94z m-5088
-172 l205 -200 -195 0 -195 -1 -53 162 -53 162 38 38 c20 21 40 38 43 38 3 0
98 -90 210 -199z m6562 162 l37 -38 -35 -100 c-19 -55 -42 -128 -51 -162 l-15
-63 -199 0 c-110 0 -199 2 -199 4 0 8 409 396 417 396 5 0 25 -17 45 -37z
m-4669 -406 l54 -186 -48 25 c-27 13 -54 24 -61 24 -8 0 -37 -47 -66 -105
l-52 -106 159 -75 159 -76 56 -161 c30 -89 53 -163 51 -165 -2 -2 -33 12 -69
32 l-66 35 -117 -232 c-65 -128 -118 -235 -118 -238 0 -4 46 -48 103 -100 56
-51 102 -96 102 -101 0 -4 -35 -8 -78 -8 l-79 0 -91 189 c-51 105 -92 195 -92
201 0 6 11 33 25 61 l26 50 -38 16 c-21 8 -48 19 -61 24 -26 10 -42 43 -105
227 l-46 131 49 91 c28 50 95 177 151 283 148 281 191 359 195 354 2 -2 28
-87 57 -190z m2734 -95 c84 -158 173 -323 197 -367 l44 -80 -43 -120 c-24 -66
-52 -142 -62 -169 l-18 -49 -62 -29 c-35 -15 -63 -30 -63 -32 0 -2 11 -29 25
-61 l26 -57 -92 -189 -92 -189 -79 0 c-43 0 -78 3 -78 8 -1 4 45 50 101 103
l102 95 -117 238 -116 237 -67 -35 c-37 -20 -69 -34 -71 -31 -2 2 20 75 49
162 l54 158 152 75 c84 41 155 78 158 81 9 9 -93 209 -105 209 -6 0 -28 -9
-50 -20 -22 -11 -43 -20 -48 -20 -5 0 6 50 24 111 18 62 41 145 50 185 10 41
20 74 23 74 3 0 75 -129 158 -288z m2324 -321 l38 -131 -140 -218 c-78 -119
-145 -221 -149 -226 -10 -10 -32 7 -115 82 l-56 51 32 103 c17 57 33 105 35
107 2 2 15 -1 29 -7 l26 -12 127 194 c70 106 129 192 130 190 2 -1 21 -61 43
-133z m-7421 -61 c92 -139 129 -188 140 -184 44 18 45 18 78 -90 l32 -105 -42
-39 c-110 -100 -118 -106 -132 -91 -22 23 -279 422 -283 440 -5 18 66 259 76
259 3 0 62 -86 131 -190z m1006 -109 c-66 -79 -111 -143 -105 -146 5 -4 36 -4
67 -1 31 3 111 2 176 -2 l119 -7 43 -122 43 -123 -52 -57 c-91 -100 -257 -302
-257 -313 0 -6 45 -10 124 -10 l125 0 70 85 c38 47 72 82 74 78 3 -4 24 -53
46 -107 l41 -99 -18 -21 c-10 -12 -58 -67 -106 -123 l-88 -103 20 -27 c11 -16
42 -50 69 -76 l49 -48 84 96 c45 53 86 93 90 88 5 -4 41 -72 82 -149 l75 -142
-215 -232 c-118 -127 -218 -228 -221 -223 -490 575 -621 735 -621 764 0 5 82
9 185 9 102 0 185 3 185 8 0 4 -103 111 -230 237 -126 126 -230 232 -230 235
0 3 133 3 296 1 l296 -3 -11 18 c-5 11 -144 161 -309 334 l-299 315 256 5
c141 3 258 4 259 3 2 -1 -48 -65 -112 -142z m5599 97 c-22 -24 -90 -95 -151
-158 -228 -236 -424 -449 -424 -460 0 -7 84 -10 290 -8 160 2 290 -1 290 -5 0
-4 -104 -113 -231 -242 l-232 -235 198 -2 198 -3 -61 -81 c-63 -83 -452 -551
-536 -645 l-47 -53 -88 95 c-48 52 -144 156 -213 233 l-126 138 76 149 c43 82
79 148 82 148 3 0 41 -41 84 -90 44 -49 84 -88 90 -88 6 1 39 32 74 69 l63 68
-105 120 c-58 67 -106 125 -106 130 0 13 71 186 80 196 4 4 39 -28 77 -73 l68
-81 128 0 c70 0 127 3 127 8 -1 7 -136 172 -247 300 -55 64 -61 74 -54 99 5
15 23 71 40 124 l31 97 38 5 c20 3 101 5 179 4 78 -1 144 1 147 4 3 2 -42 63
-100 134 -58 72 -108 133 -111 138 -2 4 112 7 253 7 l258 0 -39 -42z m961
-459 l32 -109 -190 -288 c-105 -158 -219 -329 -255 -380 l-65 -92 -46 39 c-26
22 -87 78 -135 123 l-89 83 58 230 c31 127 60 233 63 237 4 4 67 -42 141 -102
74 -60 138 -106 141 -102 8 10 228 355 270 423 19 32 36 55 39 52 2 -2 19 -54
36 -114z m-7707 -102 c71 -111 140 -216 153 -233 l23 -32 134 110 c73 60 136
106 140 103 3 -4 31 -110 62 -236 l56 -230 -132 -124 c-73 -69 -135 -125 -137
-125 -3 0 -119 171 -258 379 -222 335 -252 383 -246 408 21 86 58 193 66 188
4 -3 67 -96 139 -208z m2878 -92 c33 -91 58 -165 56 -165 -11 0 -263 304 -257
310 3 2 26 7 52 11 95 13 83 26 149 -156z m1960 146 c8 -4 -31 -59 -109 -154
-66 -81 -123 -146 -125 -143 -4 4 30 105 89 264 l19 52 57 -6 c31 -4 62 -10
69 -13z m-1959 -400 c61 -74 109 -137 107 -141 -2 -4 -43 -22 -89 -40 -58 -22
-83 -36 -78 -44 4 -7 49 -60 100 -119 74 -84 114 -119 189 -168 l95 -61 -42
-24 c-93 -53 -288 -154 -297 -154 -9 0 -168 239 -161 244 1 1 38 24 81 50 42
27 77 50 77 51 0 2 -60 22 -132 45 -97 30 -139 48 -156 67 -13 14 -21 30 -19
37 2 6 46 27 98 46 l94 36 1 100 c1 178 4 228 13 219 5 -6 59 -70 119 -144z
m1899 -63 l-5 -107 97 -37 c53 -21 99 -40 103 -44 4 -3 -1 -19 -11 -36 -16
-27 -33 -35 -147 -68 -71 -21 -133 -42 -137 -46 -5 -4 27 -29 70 -55 43 -26
79 -49 81 -50 5 -5 -148 -240 -159 -243 -13 -5 -340 170 -337 179 2 5 45 35
97 68 76 49 110 80 188 171 53 61 92 114 88 118 -3 4 -42 21 -85 37 -44 17
-79 35 -80 40 0 6 50 71 112 145 l113 135 8 -50 c5 -27 7 -98 4 -157z m-4882
-258 c222 -331 354 -520 362 -520 3 0 88 79 190 176 102 96 186 174 188 172 7
-7 106 -451 103 -464 -3 -14 -546 -514 -558 -514 -12 0 -103 128 -301 422 -93
139 -173 254 -178 256 -4 1 -73 -56 -151 -127 -79 -72 -145 -129 -147 -127 -2
2 10 52 26 112 16 60 50 188 76 284 25 96 70 261 100 365 30 105 59 210 65
234 6 24 15 40 19 35 4 -5 97 -142 206 -304z m8092 -208 c78 -284 140 -519
138 -521 -2 -2 -53 42 -112 97 -59 54 -125 114 -146 132 l-38 33 -19 -19 c-10
-10 -113 -161 -228 -335 -116 -174 -217 -320 -224 -326 -10 -8 -60 33 -209
171 -328 303 -359 334 -359 353 0 10 22 116 48 237 l48 219 71 -64 c38 -35
125 -115 192 -177 67 -62 125 -111 130 -108 4 3 131 190 282 416 151 225 276
410 279 410 3 0 69 -233 147 -518z m-4857 138 c0 -8 -102 -31 -109 -24 -4 4
17 178 26 208 4 14 17 -10 44 -78 22 -54 39 -102 39 -106z m1370 66 c7 -47 11
-88 8 -91 -4 -4 -106 14 -116 21 -2 1 26 75 70 184 l11 25 7 -26 c4 -14 13
-65 20 -113z m-152 -412 l61 -71 -46 -7 c-25 -3 -70 -6 -99 -6 l-54 0 9 23
c22 55 62 139 65 136 2 -2 31 -36 64 -75z m-1073 4 c15 -35 29 -69 32 -75 4
-10 -12 -13 -63 -12 -38 1 -81 4 -95 8 l-26 6 54 68 c30 37 58 67 62 67 5 0
21 -28 36 -62z m-1058 -292 c118 -194 374 -542 596 -810 54 -65 101 -125 104
-132 5 -14 -72 -124 -86 -124 -4 0 -103 118 -221 262 -265 323 -458 552 -469
556 -5 2 -80 -77 -167 -175 -87 -98 -282 -315 -434 -483 l-275 -304 -12 54
c-7 30 -26 136 -43 235 -17 99 -58 323 -91 499 -33 175 -58 320 -56 322 2 2
32 -31 67 -73 124 -152 324 -383 331 -383 4 0 59 57 121 128 63 70 208 232
322 360 l209 234 19 -29 c10 -15 49 -77 85 -137z m1140 111 c12 -28 32 -77 46
-107 l25 -56 -60 -139 c-33 -77 -61 -141 -63 -143 -5 -6 -125 153 -125 166 0
15 143 331 150 332 3 0 15 -24 27 -53z m905 -87 c31 -69 64 -143 72 -164 l16
-39 -56 -74 c-31 -40 -59 -75 -63 -78 -4 -2 -35 62 -70 143 l-62 147 29 65
c17 36 37 83 46 104 9 22 20 35 24 30 5 -5 34 -65 64 -134z m1479 -226 l324
-365 15 19 c66 81 383 452 387 452 2 0 2 -8 -1 -17 -3 -10 -30 -155 -60 -323
-92 -513 -138 -765 -143 -770 -3 -3 -17 9 -31 27 -104 121 -834 933 -840 933
-5 0 -46 -46 -93 -102 -47 -57 -191 -229 -320 -383 -129 -154 -246 -295 -259
-313 l-26 -32 -43 60 c-23 34 -41 67 -38 74 3 6 51 68 107 136 208 252 492
646 644 893 27 42 49 77 51 77 1 0 148 -165 326 -366z m-1271 182 c0 -3 -5 -8
-12 -12 -7 -4 -8 -3 -4 4 7 12 16 16 16 8z m-4799 -333 c90 -133 442 -633 445
-633 2 0 68 60 147 133 258 239 501 462 524 480 l22 18 16 -53 c8 -29 29 -125
44 -213 l29 -161 -24 -99 c-13 -54 -25 -103 -26 -107 -2 -4 -27 26 -57 66
l-55 74 -47 -41 c-25 -23 -152 -141 -280 -263 -129 -121 -264 -248 -300 -282
l-66 -61 -221 333 c-122 184 -228 339 -235 344 -10 9 -65 -38 -238 -205 -123
-119 -238 -229 -256 -246 l-32 -30 54 209 c103 398 102 396 137 431 77 76 374
352 380 352 4 1 22 -20 39 -46z m8430 -143 c179 -167 205 -195 215 -232 109
-415 144 -552 140 -556 -3 -3 -76 64 -163 149 -87 84 -199 193 -249 242 l-92
89 -69 -98 c-38 -55 -144 -208 -234 -341 -90 -134 -168 -243 -172 -243 -5 0
-92 80 -195 178 -260 248 -482 457 -490 459 -4 2 -29 -31 -57 -72 -30 -46 -52
-70 -56 -62 -3 6 -16 53 -29 104 l-22 92 22 123 c23 134 59 300 65 306 2 2 61
-49 132 -113 480 -441 565 -517 573 -509 4 5 76 110 161 234 229 338 301 440
309 440 4 0 99 -85 211 -190z m-4511 26 c0 -3 -5 -8 -12 -12 -7 -4 -8 -3 -4 4
7 12 16 16 16 8z m80 -188 c0 -11 -2 -10 -44 7 -20 8 -36 19 -36 24 0 5 -16
19 -35 32 -19 13 -35 28 -35 32 0 4 10 21 22 37 l21 29 54 -77 c29 -42 53 -80
53 -84z m58 -138 c17 -27 10 -25 -19 6 -13 14 -17 23 -9 19 9 -3 21 -14 28
-25z m1780 -159 l109 -124 -165 -201 c-170 -207 -436 -525 -485 -580 l-27 -31
-38 41 c-20 23 -72 81 -116 128 l-78 86 78 97 c190 239 599 722 606 715 3 -4
56 -63 116 -131z m-3166 -103 c107 -128 241 -291 298 -363 58 -71 122 -149
143 -172 l39 -43 -117 -125 c-65 -69 -120 -125 -124 -125 -4 0 -43 44 -87 98
-44 53 -188 228 -319 387 -131 160 -244 297 -251 306 -12 13 1 32 98 142 62
70 116 127 120 127 4 0 94 -105 200 -232z m-2613 -354 c100 -152 180 -279 177
-281 -3 -3 -47 -2 -99 2 l-94 7 -94 139 c-51 76 -98 139 -102 139 -5 0 -74
-63 -154 -140 l-145 -140 -126 0 -127 0 55 54 c124 123 515 496 521 496 3 0
88 -124 188 -276z m8626 -79 l200 -194 -124 -1 -124 0 -143 140 c-79 77 -147
140 -152 140 -4 0 -51 -63 -105 -139 l-97 -139 -83 -7 c-46 -4 -91 -5 -100 -4
-12 3 30 74 169 282 l185 279 87 -81 c48 -45 177 -169 287 -276z m-7609 274
l37 -50 -28 -107 c-15 -59 -31 -111 -35 -115 -4 -4 -15 3 -24 17 -9 15 -21 26
-27 26 -8 0 -130 -106 -255 -222 l-31 -29 -123 -5 -123 -4 14 17 c16 19 549
523 554 523 2 0 20 -23 41 -51z m6296 -159 c112 -107 234 -223 271 -258 37
-35 67 -64 67 -65 0 -1 -54 0 -120 3 l-120 5 -125 114 c-166 152 -160 148
-181 116 -9 -14 -21 -22 -25 -18 -5 5 -19 55 -33 113 l-25 105 31 47 c20 32
34 45 43 40 7 -4 105 -95 217 -202z m-3568 -207 l98 -113 -217 0 -217 0 24 28
c141 168 193 221 204 210 6 -7 55 -64 108 -125z m-92 -400 l3 -118 115 -5 115
-5 0 -95 0 -95 -117 -3 -118 -3 0 -119 0 -120 -100 0 -100 0 0 120 0 120 -115
0 -115 0 0 100 0 100 115 0 115 0 0 113 c0 63 3 117 7 120 3 4 48 7 99 7 l93
0 3 -117z m-4191 40 c35 -38 91 -96 123 -131 l58 -62 -50 -58 c-28 -31 -84
-93 -126 -137 l-74 -80 -64 69 c-35 38 -89 101 -120 139 l-57 70 79 86 c44 47
96 105 117 127 21 23 40 42 43 43 3 1 35 -29 71 -66z m9334 -62 c64 -68 115
-127 113 -132 -5 -15 -231 -269 -239 -269 -9 0 -203 212 -227 248 l-15 23 20
22 c101 114 218 237 225 235 4 -2 60 -59 123 -127z m-8405 -106 l0 -124 123
-3 122 -3 3 -102 3 -103 -43 0 c-24 0 -80 -3 -125 -7 l-83 -6 0 -123 0 -124
-105 0 -105 0 0 125 0 124 -117 3 -118 3 -3 108 -3 107 121 0 120 0 0 125 0
125 105 0 105 0 0 -125z m7490 0 l0 -124 123 -3 122 -3 0 -98 c0 -76 -3 -100
-15 -107 -8 -5 -63 -10 -122 -10 l-108 0 0 -125 0 -125 -99 0 -98 0 -7 38 c-3
20 -6 76 -6 123 l0 86 -77 7 c-42 3 -96 6 -120 6 l-43 0 0 105 0 105 120 0
120 0 0 118 c0 65 3 122 7 125 3 4 51 7 105 7 l98 0 0 -125z m-8697 -394 c76
-16 140 -30 142 -33 3 -2 -24 -54 -60 -114 -36 -60 -65 -114 -65 -120 0 -7 70
-25 170 -44 119 -22 168 -36 163 -44 -4 -6 -40 -61 -80 -123 -40 -62 -69 -114
-65 -116 4 -3 80 -17 169 -33 89 -15 160 -30 158 -33 -2 -3 -40 -60 -85 -126
l-81 -120 93 -21 c51 -12 128 -29 170 -38 l77 -17 -101 -120 c-55 -66 -98
-122 -95 -126 6 -6 150 -41 260 -63 l58 -12 -38 -41 c-21 -23 -66 -73 -99
-110 l-61 -67 -29 9 c-16 6 -135 42 -264 81 -129 39 -249 76 -266 81 l-32 10
24 107 c13 59 37 165 53 237 17 71 27 132 23 136 -4 3 -32 11 -62 17 -204 44
-240 55 -240 71 0 9 13 76 28 149 l29 132 -36 9 c-20 5 -60 15 -89 21 -32 7
-52 17 -49 24 2 6 31 113 63 239 32 125 63 227 69 227 5 -1 72 -14 148 -29z
m9866 -3 c5 -18 33 -125 62 -237 41 -164 49 -205 38 -212 -7 -4 -44 -13 -82
-20 -37 -7 -70 -16 -73 -20 -2 -4 9 -72 26 -150 16 -79 28 -144 26 -146 -1 -2
-71 -17 -154 -35 -104 -22 -152 -37 -152 -46 0 -7 23 -115 51 -238 28 -124 48
-228 45 -231 -3 -3 -126 -43 -273 -88 -148 -45 -277 -85 -289 -89 -17 -5 -38
12 -119 99 -53 58 -96 108 -94 110 3 2 56 15 119 29 155 36 190 45 190 54 0 5
-42 60 -94 123 -52 62 -93 116 -91 117 2 2 74 19 160 37 86 18 158 35 161 38
3 3 -31 60 -76 127 -45 67 -80 123 -78 125 3 2 309 55 322 55 15 0 1 28 -70
136 -41 65 -71 120 -66 123 6 3 83 19 171 35 89 16 161 32 161 36 0 4 -29 58
-64 121 -36 63 -63 116 -60 118 3 3 259 57 286 60 3 1 11 -14 17 -31z m-8471
-655 c-92 -361 -144 -553 -149 -551 -4 2 -57 68 -119 148 -61 80 -154 199
-206 265 -52 66 -100 128 -105 138 l-10 17 297 0 296 0 -4 -17z m7472 -26
c-17 -24 -98 -128 -181 -232 -83 -105 -169 -216 -191 -248 -23 -31 -43 -56
-44 -54 -3 3 -144 563 -144 572 0 3 133 5 296 5 l295 0 -31 -43z m1215 -172
c10 -44 33 -134 51 -200 18 -66 30 -123 26 -126 -8 -8 -239 -79 -256 -79 -7 0
-22 43 -35 98 -13 53 -26 102 -28 108 -2 7 40 20 109 34 62 13 117 26 122 31
4 4 -2 50 -14 103 -20 90 -21 142 -1 120 5 -5 16 -45 26 -89z m-10425 63 c0
-13 -9 -61 -20 -108 -12 -56 -15 -87 -9 -91 6 -3 60 -17 120 -29 60 -13 109
-25 109 -27 0 -10 -52 -208 -56 -212 -2 -2 -62 14 -134 35 l-131 39 4 25 c2
14 23 95 45 180 22 85 43 167 46 183 8 33 26 36 26 5z m3215 -451 c-13 -32
-65 -264 -65 -292 0 -12 24 -15 127 -17 l127 -3 -139 -147 -140 -147 -140 0
c-77 1 -168 4 -201 8 l-62 6 75 95 c108 137 426 530 429 530 2 0 -3 -15 -11
-33z m4181 -252 c45 -55 122 -154 173 -220 l92 -120 -68 -6 c-37 -4 -127 -7
-200 -8 l-131 -1 -142 148 -142 147 131 3 132 3 -7 37 c-14 84 -54 254 -64
271 -5 11 -10 23 -10 26 0 7 114 -128 236 -280z m-7504 51 c117 -36 492 -146
833 -246 341 -100 657 -192 702 -206 95 -28 128 -53 147 -108 11 -33 11 -49
-1 -100 -7 -33 -15 -62 -17 -64 -2 -2 -102 26 -223 62 -120 35 -373 110 -563
166 -391 115 -1254 372 -1257 374 -4 4 24 102 36 124 13 25 76 61 108 62 12 0
118 -29 235 -64z m10904 39 c29 -19 62 -86 66 -134 l3 -33 -105 -30 c-58 -16
-229 -67 -380 -113 -151 -46 -410 -122 -575 -170 -165 -48 -385 -113 -490
-145 -229 -70 -470 -140 -483 -140 -15 0 -35 97 -29 142 7 49 45 92 101 112
23 9 142 45 266 82 124 36 275 81 335 99 61 19 310 93 555 164 245 72 488 144
540 161 102 32 153 33 196 5z m-9280 -120 c-19 -80 -35 -125 -43 -125 -25 0
-163 44 -161 51 2 4 48 43 103 87 56 44 107 87 114 96 7 9 15 16 16 16 1 0
-12 -56 -29 -125z m7502 -29 c35 -26 61 -50 59 -52 -2 -3 -35 -13 -73 -24 -38
-10 -76 -22 -86 -25 -13 -5 -20 11 -42 107 -15 62 -29 122 -33 133 -3 13 16 0
53 -35 33 -31 87 -77 122 -104z m-1194 -591 c14 -60 24 -110 23 -111 -1 -1
-91 -5 -199 -9 l-198 -7 0 110 0 110 173 8 c94 5 173 9 174 8 2 0 14 -49 27
-109z m-5006 98 l122 -6 0 -77 c0 -43 -3 -92 -6 -110 l-7 -32 -191 7 c-105 4
-193 9 -194 10 -2 2 6 49 17 106 12 56 21 103 21 105 0 6 104 5 238 -3z m716
-19 c13 -5 16 -23 16 -93 0 -47 -3 -97 -7 -110 l-6 -24 -213 5 c-118 2 -215 6
-217 9 -1 2 -1 52 1 112 l4 107 203 0 c112 0 210 -3 219 -6z m3746 -103 l0
-108 -82 -6 c-46 -4 -145 -7 -220 -7 l-138 0 0 49 c0 26 -3 75 -6 109 l-7 61
34 4 c19 2 121 5 227 5 l192 2 0 -109z m-4891 -2030 l130 -154 -196 -203
c-108 -112 -198 -202 -200 -200 -2 2 20 170 49 374 l53 371 17 -17 c9 -9 75
-86 147 -171z m5825 -186 c26 -187 46 -347 46 -355 0 -8 -88 75 -195 185 -107
110 -194 203 -192 207 1 3 65 81 142 172 108 128 141 162 146 149 4 -10 27
-171 53 -358z m-753 -372 c204 -209 764 -786 863 -890 l87 -91 34 -259 c19
-142 37 -276 40 -298 l6 -40 -76 75 c-42 41 -295 299 -562 573 -268 273 -489
497 -493 497 -7 0 -361 -432 -639 -780 -90 -113 -168 -206 -173 -208 -4 -2 -8
127 -8 286 l0 290 112 144 c156 201 668 838 673 838 1 0 62 -62 136 -137z
m-1970 -1145 c162 -182 302 -343 311 -357 13 -19 18 -46 18 -103 l0 -78 -44 0
c-38 0 -48 5 -76 38 -121 139 -505 562 -511 562 -6 0 -452 -492 -521 -575
l-26 -30 -116 3 -117 3 27 32 c75 90 748 837 754 837 4 0 140 -149 301 -332z
m-2238 -201 c127 -164 240 -309 250 -323 l19 -24 -108 0 c-80 0 -110 4 -118
14 -251 321 -311 396 -317 396 -4 0 -17 -12 -29 -27 -12 -16 -96 -106 -187
-200 l-165 -173 -114 0 c-96 0 -114 2 -107 14 4 8 145 158 313 335 272 286
306 319 318 303 7 -9 117 -151 245 -315z m4397 53 c139 -146 280 -293 314
-327 l60 -63 -121 0 -122 0 -186 198 c-103 108 -191 198 -195 200 -4 1 -79
-90 -166 -203 l-159 -205 -109 0 -109 0 15 18 c8 9 111 141 228 292 271 350
281 362 290 358 4 -2 121 -122 260 -268z m-2332 -250 c67 -77 122 -142 122
-145 0 -3 -113 -5 -251 -5 -147 0 -249 4 -247 9 5 14 239 281 247 281 3 0 61
-63 129 -140z m-88 -382 c19 -24 116 -142 215 -263 100 -121 185 -226 189
-233 4 -8 -25 -51 -82 -120 -49 -59 -149 -179 -222 -267 -72 -88 -135 -161
-138 -162 -6 -2 -416 487 -446 531 -7 9 46 79 185 247 107 129 208 251 224
271 17 21 33 38 36 38 3 0 21 -19 39 -42z m-2852 -215 l3 -153 139 0 140 0 0
-125 0 -125 -140 0 -139 0 -3 -152 -3 -153 -120 0 -120 0 -3 152 -3 152 -142
3 -142 3 0 120 0 120 143 3 142 3 0 93 c0 51 3 121 6 155 l7 62 116 -3 116 -3
3 -152z m1670 149 l82 -2 0 -150 0 -150 145 0 145 0 0 -125 0 -125 -145 0
-145 0 0 -155 0 -155 -120 0 -120 0 0 155 0 155 -145 0 -146 0 3 123 3 122
143 3 142 3 0 148 c0 81 2 150 4 152 3 3 20 4 38 4 18 -1 70 -2 116 -3z m4202
-49 c0 -32 3 -102 7 -155 l6 -98 139 0 138 0 0 -125 0 -125 -145 0 -145 0 0
-155 0 -155 -120 0 -120 0 0 155 0 155 -145 0 -146 0 3 123 3 122 136 3 137 3
6 31 c3 17 6 86 6 154 l0 124 120 0 120 0 0 -57z m-1160 -103 l0 -150 140 0
140 0 0 -125 0 -125 -140 0 -140 0 0 -155 0 -156 -122 3 -123 3 -3 153 -3 152
-139 0 -140 0 0 125 0 125 140 0 140 0 2 128 c1 70 2 137 2 150 l0 22 123 0
123 0 0 -150z m-3860 -120 c57 -63 112 -125 123 -137 l19 -22 -122 -136 c-67
-75 -126 -135 -131 -133 -5 2 -62 64 -127 137 l-120 135 122 137 c66 76 124
137 127 136 4 -1 53 -54 109 -117z m-260 -920 l0 -130 125 0 125 0 0 -135 0
-135 120 0 120 0 1 -22 c0 -13 0 -73 -1 -135 l-1 -112 128 -3 128 -3 0 -135 0
-135 123 -3 122 -3 0 -57 c0 -31 3 -94 7 -139 l6 -83 46 0 46 0 393 440 c467
522 721 800 730 800 8 0 178 -184 452 -490 l180 -200 0 -285 c0 -157 -3 -285
-7 -284 -5 0 -29 26 -56 57 -117 138 -563 630 -569 629 -6 -2 -357 -390 -956
-1061 -112 -125 -208 -226 -213 -224 -4 2 -160 168 -346 369 -529 573 -827
889 -838 889 -6 0 -116 -107 -245 -237 -129 -131 -404 -408 -610 -617 l-374
-378 -26 29 c-14 17 -47 55 -73 86 l-48 56 21 183 c11 101 23 200 26 222 l6
39 63 -5 63 -5 6 51 c3 28 6 88 6 133 l0 82 123 3 122 3 3 138 3 137 129 0
130 0 0 135 0 135 135 0 135 0 0 135 0 135 120 0 120 0 0 130 0 130 150 0 150
0 0 -130z m4740 0 l0 -129 123 -3 122 -3 3 -132 3 -132 132 -3 132 -3 3 -132
3 -132 127 -3 127 -3 3 -137 3 -138 124 0 125 0 0 -130 0 -130 70 0 c49 0 70
-4 70 -12 0 -7 11 -107 25 -222 l24 -208 -71 -84 c-39 -46 -75 -84 -79 -84 -4
0 -278 276 -609 613 -331 336 -607 613 -614 615 -12 3 -273 -272 -835 -878
-89 -96 -166 -177 -172 -178 -6 -3 -8 122 -7 345 l3 348 60 5 60 5 3 138 3
137 124 0 125 0 0 135 0 135 125 0 125 0 0 135 0 135 120 0 120 0 0 130 0 130
150 0 150 0 0 -130z m-4630 -1305 l0 -85 -265 0 -265 0 0 85 0 85 265 0 265 0
0 -85z m4760 0 l0 -85 -267 2 -268 3 -3 83 -3 82 271 0 270 0 0 -85z m-2330
-508 l311 -329 -3 -116 -3 -117 -47 0 -47 0 -259 275 c-142 151 -264 275 -271
275 -7 0 -129 -123 -271 -274 l-259 -275 -158 3 c-87 1 -159 3 -160 4 -5 6
841 887 849 884 4 -1 147 -150 318 -330z m-2430 258 l0 -55 -270 0 -270 0 0
48 c0 27 3 52 7 55 3 4 125 7 270 7 l263 0 0 -55z m4760 0 l0 -55 -270 0 -270
0 0 55 0 55 270 0 270 0 0 -55z m-4758 -259 c3 -46 9 -89 12 -95 5 -7 48 -11
117 -11 l109 0 0 -275 0 -275 -254 0 c-222 0 -255 -2 -260 -16 -3 -9 -6 -155
-6 -325 l0 -309 -17 0 c-22 0 -337 65 -428 88 l-70 18 -3 252 -2 252 -203 -2
-202 -3 -3 -192 c-1 -106 -4 -193 -7 -193 -2 0 -66 21 -142 46 -165 55 -375
144 -381 162 -3 9 33 12 157 12 l161 0 0 190 0 190 195 0 195 0 0 190 0 190
245 0 245 0 0 -105 0 -105 -130 0 -130 0 0 -170 0 -170 265 0 265 0 0 275 0
275 -130 0 -130 0 0 95 0 95 264 0 263 0 5 -84z m4758 -11 l0 -95 245 0 c188
0 246 -3 247 -12 2 -7 3 -92 3 -188 l0 -175 193 -3 192 -2 0 -190 0 -190 166
0 c197 0 199 -4 36 -75 -118 -52 -392 -146 -404 -139 -5 3 -8 90 -8 195 l0
189 -200 0 -200 0 -2 -252 -3 -253 -75 -17 c-111 -27 -412 -88 -432 -88 l-18
0 0 325 0 325 265 0 265 0 0 170 0 169 -132 3 -133 3 -3 103 -3 102 -134 0
-135 0 0 -275 0 -275 -250 0 -250 0 0 275 0 274 113 3 112 3 3 93 3 92 269 0
270 0 0 -95z m-2444 -505 c110 -118 250 -268 311 -335 l113 -120 0 -177 c0
-98 -3 -178 -7 -177 -5 1 -42 38 -83 83 -273 297 -536 576 -541 574 -3 -2 -68
-70 -144 -153 -76 -82 -251 -269 -388 -413 l-250 -264 -41 6 c-23 3 -89 8
-148 12 -60 4 -108 11 -108 16 0 8 177 203 492 541 90 96 258 276 373 400 116
125 213 226 216 224 4 -1 96 -99 205 -217z m-1866 -285 l0 -135 125 0 125 0 0
-105 0 -105 -125 0 -125 0 0 -130 0 -130 -105 0 -105 0 0 130 0 130 -125 0
-125 0 0 105 0 105 125 0 125 0 0 135 0 135 105 0 105 0 0 -135z m3532 3 l3
-133 123 -3 122 -3 0 -104 0 -105 -125 0 -125 0 0 -130 0 -130 -54 0 c-29 0
-74 -3 -99 -6 l-46 -7 -3 134 -3 134 -127 3 -128 3 0 104 0 105 125 0 125 0 0
128 c0 71 2 131 5 134 3 2 50 5 105 7 l99 2 3 -133z m-1790 -240 c41 -46 159
-173 262 -283 l187 -200 -133 -8 c-144 -9 -820 0 -880 11 l-37 7 140 150 c77
83 193 207 257 277 64 70 120 127 123 128 3 0 40 -37 81 -82z m3843 -154 c12
-84 7 -163 -12 -197 -83 -143 -830 -362 -1678 -492 -292 -45 -887 -106 -901
-92 -3 3 -1 22 6 44 6 21 13 81 17 134 l6 97 76 6 c149 13 529 57 698 81 624
90 1286 256 1643 414 63 27 120 50 126 51 7 0 15 -21 19 -46z"/>
<path d="M6290 18790 c-58 -4 -106 -8 -107 -9 -8 -3 -1 -36 18 -87 37 -99 114
-165 233 -199 45 -13 83 -16 156 -13 81 4 108 10 162 35 36 17 82 47 103 68
36 36 75 109 88 166 l7 26 -38 7 c-61 10 -509 15 -622 6z"/>
<path d="M5795 18734 c-134 -26 -273 -59 -282 -67 -8 -8 26 -222 63 -397 135
-637 378 -1412 677 -2160 126 -317 301 -720 311 -717 11 4 60 116 217 496 236
569 458 1205 613 1756 107 380 206 832 209 960 l2 69 -75 18 c-110 27 -351 68
-360 63 -5 -3 -11 -19 -15 -36 -22 -97 -109 -253 -175 -313 -124 -112 -371
-164 -575 -121 -101 21 -209 78 -276 145 -41 40 -69 82 -102 151 -25 51 -51
113 -58 137 -8 27 -18 42 -28 41 -9 0 -74 -12 -146 -25z"/>
<path d="M6765 12378 c-16 -6 -42 -19 -56 -29 l-27 -19 -43 16 c-25 9 -74 17
-111 17 -127 0 -240 -79 -290 -202 l-23 -56 0 -170 c0 -142 3 -177 18 -215 30
-72 80 -125 154 -162 l66 -32 101 1 c111 1 231 23 278 50 17 10 39 29 50 43
10 14 41 113 68 220 27 107 59 228 70 269 28 105 27 162 -6 201 -15 17 -44 40
-65 51 -47 23 -143 33 -184 17z"/>
<path d="M6122 11483 c-6 -10 -26 -67 -45 -128 -125 -387 -252 -1096 -376
-2095 -72 -572 -149 -1399 -137 -1463 9 -48 47 -92 106 -122 26 -13 145 -65
264 -114 246 -103 279 -110 319 -61 30 35 34 64 42 310 41 1269 118 2446 208
3163 l43 337 -36 0 c-58 0 -159 28 -222 62 -32 17 -81 53 -108 80 -43 42 -50
46 -58 31z"/>
<path d="M6662 10282 c-6 -97 -19 -281 -28 -409 l-16 -232 27 -33 c43 -52 117
-130 119 -126 7 9 -75 961 -83 970 -4 4 -12 -72 -19 -170z"/>
<path d="M4999 16929 c-33 -67 -59 -123 -57 -125 2 -1 49 -21 103 -44 55 -22
105 -43 112 -46 7 -4 33 36 67 105 31 61 56 114 56 119 0 6 -202 112 -215 112
-3 0 -32 -54 -66 -121z"/>
<path d="M7965 17009 c-44 -23 -90 -47 -102 -55 l-23 -14 60 -120 60 -120 110
55 c61 30 110 59 110 63 1 16 -116 232 -125 231 -5 0 -46 -18 -90 -40z"/>
<path d="M6450 5539 c-58 -71 -104 -134 -102 -140 4 -17 203 -259 213 -259 4
0 55 59 114 130 l106 131 -18 24 c-45 60 -199 244 -203 244 -3 0 -52 -59 -110
-130z"/>
</g>
</svg>
